<svg xmlns="http://www.w3.org/2000/svg" width="220" height="50" viewBox="0 0 220 50"><linearGradient id="a" gradientUnits="userSpaceOnUse" x1="8.06" y1="25" x2="54.52" y2="25"><stop offset="0" stop-color="#b600ff"/><stop offset="1" stop-color="#0ff"/></linearGradient><path fill="url(#a)" d="M45.197 35.512l-.048.143c-.007.055-1.155 4.568-4.179 4.568-3.031 0-4.182-4.514-4.193-4.561l-3.712-11.256-3.655-11.031c-.229-.887-2.107-7.344-7.799-7.344-5.688 0-7.56 6.457-7.798 7.344L8.06 30.762h3.937l5.387-16.273.044-.146c.01-.053 1.16-4.564 4.184-4.564 3.03 0 4.173 4.512 4.192 4.557l3.715 11.248 3.654 11.039c.228.885 2.106 7.348 7.798 7.348 5.689 0 7.56-6.463 7.797-7.348l5.753-17.385h-3.933l-5.391 16.274z"/><path d="M58.432 19.637h-.362c-.157 0-.224-.113-.224-.229 0-.113.082-.229.224-.229h1.221c.142 0 .224.115.224.229 0 .115-.066.229-.224.229h-.362v1.664c0 .168-.104.26-.248.26s-.248-.092-.248-.26v-1.664zm1.593-.221a.334.334 0 0 1 .326-.254c.165 0 .295.117.332.238l.389 1.312h.009l.391-1.312a.352.352 0 0 1 .331-.238c.175 0 .307.135.324.254l.309 1.852a.35.35 0 0 1 .003.057c0 .145-.106.236-.239.236-.17 0-.236-.078-.259-.23l-.194-1.352h-.008l-.396 1.391c-.022.078-.087.191-.265.191s-.242-.113-.267-.191l-.396-1.391h-.008l-.194 1.352c-.023.152-.09.23-.258.23-.134 0-.239-.092-.239-.236 0-.02 0-.039.002-.057l.307-1.852zm10.402 1.002a.089.089 0 0 1-.085.07.086.086 0 0 1-.085-.086 1.045 1.045 0 0 0-2.087 0v10.814a1.043 1.043 0 1 0 2.087 0v-9.102c0-.037.018-.068.05-.08 1.919-.842 3.374-1.252 4.45-1.252 2.071 0 2.421 1.09 2.421 3.533v6.9a1.043 1.043 0 0 0 2.084 0v-6.9c0-3.445-.68-5.309-4.276-5.309-1.495.002-2.908.564-4.559 1.412m46.479-6.191c-.739 0-1.339.6-1.339 1.338 0 .736.6 1.334 1.339 1.334.738 0 1.339-.598 1.339-1.334a1.34 1.34 0 0 0-1.339-1.338m0 5.134c-.576 0-1.043.467-1.043 1.041v10.814a1.043 1.043 0 1 0 2.087 0V20.402c0-.574-.469-1.041-1.044-1.041m66.506-5.134c-.738 0-1.34.6-1.34 1.338a1.339 1.339 0 0 0 2.678 0 1.34 1.34 0 0 0-1.338-1.338m0 5.134c-.576 0-1.046.467-1.046 1.041v10.814a1.044 1.044 0 0 0 2.087 0V20.402c0-.574-.467-1.041-1.041-1.041m-77.334-.406c-1.309 0-2.628.328-3.714.926a.08.08 0 0 1-.084 0 .084.084 0 0 1-.044-.074v-4.539c0-.574-.467-1.041-1.041-1.041-.576 0-1.046.467-1.046 1.041v15.949c0 .516.372.947.883 1.025l.009.004.121.018c1.611.219 2.579.35 4.005.35 2.087 0 3.586-.486 4.584-1.492 1.023-1.031 1.52-2.604 1.52-4.807v-1.516c0-3.987-1.65-5.844-5.193-5.844m3.083 7.334c0 1.68-.31 2.787-.973 3.496-.623.668-1.567.975-2.973.975-1.311 0-2.385-.086-2.899-.127a.087.087 0 0 1-.08-.088v-8.939a.08.08 0 0 1 .044-.074c1.032-.59 2.7-.748 3.52-.748 2.418 0 3.361 1.119 3.361 3.988v1.517zm-14.866-6.928c-.571 0-1.04.467-1.04 1.041v9.104a.088.088 0 0 1-.052.08c-1.921.842-3.377 1.25-4.452 1.25-2.071 0-2.421-1.09-2.421-3.535v-6.898a1.043 1.043 0 0 0-2.085 0v6.898c0 3.447.683 5.312 4.278 5.312 1.495 0 2.904-.562 4.56-1.41a.088.088 0 0 1 .084-.072c.049 0 .088.039.088.086a1.042 1.042 0 0 0 2.084 0V20.402c0-.574-.468-1.041-1.044-1.041m42.444-.353c-1.312 0-2.798.516-4.303 1.494-.021.014-.043.018-.066.014a.076.076 0 0 1-.054-.039c-.604-.99-1.705-1.469-3.366-1.469-1.159 0-2.416.385-3.735 1.148a.095.095 0 0 1-.074.004.085.085 0 0 1-.052-.057 1.043 1.043 0 0 0-2.041.299v10.814a1.042 1.042 0 0 0 2.084 0v-9.223a.09.09 0 0 1 .046-.076c1.229-.699 2.568-1.135 3.492-1.135 2.167 0 2.167 1.264 2.167 3.18v7.254a1.043 1.043 0 0 0 2.086 0v-7.254c0-.596 0-1.268-.089-1.906a.087.087 0 0 1 .041-.086c1.259-.732 2.633-1.188 3.587-1.188 2.165 0 2.165 1.264 2.165 3.18v7.254a1.043 1.043 0 0 0 2.087 0v-7.254c0-1.09 0-2.316-.498-3.289-.574-1.122-1.711-1.665-3.477-1.665m41.795.008c-1.438.115-2.826.547-4.494 1.402a.09.09 0 0 1-.086.07.086.086 0 0 1-.086-.086 1.044 1.044 0 0 0-2.086 0v10.814a1.043 1.043 0 0 0 2.086 0v-9.102c0-.037.021-.068.05-.08 2.262-.992 4.196-1.201 4.736-1.244h.006a.894.894 0 0 0 .818-.957.891.891 0 0 0-.944-.817m-27.992-.006c-3.551 0-5.584 2.654-5.584 6.408v.678c0 4.518 2.18 6.512 5.985 6.512 1.578 0 3.669-.639 4.276-1.018a.954.954 0 0 0 .377-1.131.954.954 0 0 0-1.227-.572c-.019.004-.037.014-.055.021-1.202.562-2.818.65-3.443.65-2.18 0-3.701-.535-3.773-3.557h8.147c1.027 0 1.038-1.041 1.038-1.041v-.967c.001-5.345-4.023-5.983-5.741-5.983m3.577 5.912h-7.024v-.1c0-2.584 1.544-3.76 3.777-3.76 0 0 3.333-.125 3.333 3.773 0 .001-.01.087-.086.087m43.574 7.353a.958.958 0 0 0-.213-1.891h-.06c-1.321.117-2.295.174-2.922.174-2.231 0-3.776-.561-3.776-3.785v-1.951c0-3.223 1.545-3.76 3.776-3.76 1.093 0 2.051.096 2.906.17.024.002.05.002.075.002a.956.956 0 0 0 .207-1.889c-.699-.152-1.941-.336-3.518-.336-3.807 0-5.583 2.096-5.583 5.812v1.951c0 3.693 1.776 5.834 5.583 5.834 1.582.001 2.825-.18 3.525-.331m12.65-11.295a.84.84 0 0 0 .898-.691.841.841 0 0 0-.684-.969 21.133 21.133 0 0 0-3.516-.311c-3.502 0-5.051 1.059-5.051 3.223 0 1.859 1.144 2.918 3.832 3.977l1.017.4c2.386.941 2.816 1.293 2.816 2.447 0 1.129-.61 1.738-2.995 1.738-1.213 0-2.584-.137-3.567-.236-.023-.004-.046-.004-.072-.004a.85.85 0 0 0-.152 1.688c.901.164 2.438.365 3.868.365 4.137 0 5.202-1.738 5.202-3.6 0-2-.965-2.799-4.214-4.139l-1.013-.4c-1.98-.801-2.436-1.225-2.436-2.236 0-1.174.836-1.412 2.866-1.412.768 0 1.992.063 3.201.16m-42.94 9.479a17 17 0 0 1-1.869.141c-1.293 0-1.42-.254-1.42-1.824v-6.898c0-.023.009-.047.025-.062s.039-.025.062-.025h3.185c.576 0 1.043-.469 1.043-1.039 0-.576-.467-1.043-1.043-1.043h-3.193a.086.086 0 0 1-.084-.086l-.014-2.982a1.04 1.04 0 0 0-1.037-1.035c-.577 0-1.045.465-1.047 1.035l-.013 2.982a.086.086 0 0 1-.085.086h-1.048c-.575 0-1.043.467-1.043 1.043 0 .57.468 1.039 1.043 1.039h1.043a.088.088 0 0 1 .08.058v7.215c0 2.633.756 3.545 3.294 3.545.817 0 1.979-.207 2.495-.369a.914.914 0 0 0-.374-1.781" fill="#F3F3F3"/></svg>